<svg xmlns="http://www.w3.org/2000/svg" width="256" height="256" viewBox="0 0 67.733 67.733"><path fill="#ffffff" d="M28.946 67.371c-7.898-1.22-16.09-5.682-20.866-11.366C2.526 49.393-.01 42.259 0 33.28c.011-9.361 3.062-16.57 9.931-23.465C16.626 3.096 24.294 0 34.24 0c11.987 0 22.477 5.976 28.82 16.418 3.412 5.62 4.697 10.416 4.673 17.454-.033 9.894-3.044 16.996-10.208 24.081-7.464 7.382-18.408 10.988-28.579 9.418zm14.204-7.31c11.71-3.46 16.94-11.874 12.837-20.658-1.887-4.04-4.754-7.122-7.493-8.055-2.267-.771-2.267-.771-.766-1.346 1.57-.602 3.316-2.642 3.316-3.877 0-1.407-12.493-.644-21.673 1.324-4.391.94-4.391.94-4.391 3.071 0 2.86.475 3.916 1.76 3.916 1.145 0 1.444.834.506 1.412-1.259.775-.399 1.268 2.793 1.6 14.185 1.477 19.632 11.852 9.5 18.094-2.339 1.44-3.252 1.664-6.794 1.664-3.426 0-4.703-.292-7.857-1.791-6.272-2.982-11.24-9.56-11.24-14.882 0-1.017.898-1.046 3.86-.126.41.127-.843-1.682-2.784-4.02-1.94-2.337-3.744-4.035-4.008-3.772-.559.556-3.3 11.056-3.3 12.64 0 .857.361.665 1.783-.949.981-1.113 1.97-1.82 2.197-1.572.227.249.851 1.799 1.387 3.445 2.086 6.404 8.181 12.112 14.903 13.955 3.842 1.054 11.775 1.016 15.464-.074zm-8.522-30.119c-1.131-.713-.736-.958 2.25-1.395 2.55-.373 2.55-.373 1.213.782-1.473 1.272-2.21 1.403-3.463.613zm25.515 12.395c1.092-8.677-1.255-17.047-6.004-21.408-4.489-4.123-9.488-5.961-17.947-6.601-4.936-.374-4.936-.374-3.825-1.782 1.109-1.404 1.592-5.772.638-5.772-1.359 0-17.546 11.842-20.674 15.124-1.6 1.678-1.6 1.678.234 3.76 1.437 1.63 2.12 2.008 3.158 1.75 1.06-.266 1.324-.105 1.324.808 0 1.382-.315 1.384 3.736-.02 7.5-2.597 19.584-4.487 28.692-4.487 4.99 0 4.99 0 4.617 1.553-.49 2.044-1.095 3.18-2.162 4.062-.768.635-.566 1.066 1.638 3.51 2.716 3.01 4.734 7.59 5.248 11.912.177 1.486.414 2.608.528 2.495.115-.114.474-2.321.8-4.905zm-39.13-24.82c1.521-1.261 2.028-1.449 2.172-.804.288 1.286-1.007 2.483-2.666 2.466-1.489-.014-1.489-.014.495-1.661z"/></svg>
